<?xml version="1.0" encoding="utf-8"?>
<!-- Generator: Adobe Illustrator 23.0.2, SVG Export Plug-In . SVG Version: 6.00 Build 0)  -->
<svg version="1.1" id="Layer_1" xmlns="http://www.w3.org/2000/svg" xmlns:xlink="http://www.w3.org/1999/xlink" x="0px" y="0px"
	 viewBox="0 0 3939 1721" style="enable-background:new 0 0 3939 1721;" xml:space="preserve">
<style type="text/css">
	.st0{fill:#2E5CA9;}
	.st1{fill:#FFFFFF;}
	.st2{fill:#424041;}
	.st3{fill:#F69221;}
</style>
<path class="st0" d="M81.15,1648.82c0-79.32,0-158.15,0-236.43c0.73-0.8,0.93-1.09,1.19-1.28c0.26-0.18,0.6-0.33,0.91-0.36
	c2.31-0.23,4.62-0.61,6.93-0.61c1238.87,0.04,2477.75,0.1,3716.62,0.2c0.96,0,1.92,0.45,2.83,0.68
	c2.14,7.08,2.72,225.29,0.66,237.33c-0.22,0.25-0.41,0.55-0.67,0.74c-0.26,0.19-0.6,0.32-0.92,0.38c-1.3,0.25-2.61,0.67-3.91,0.67
	c-1237.88,0.05-2475.75,0.08-3713.63,0.1c-2,0-4-0.09-5.98-0.29C84.22,1649.84,83.28,1649.42,81.15,1648.82z M3717.92,1611.91
	c0-54.88,0-107.67,0-160.27c-1.52-0.72-2.39-1.46-3.3-1.5c-4.65-0.24-9.31-0.46-13.96-0.4c-9.64,0.11-10.22,0.71-10.53,10.11
	c-0.09,2.66-0.03,5.33-0.03,7.99c0,28.31,0.02,56.61-0.03,84.92c-0.01,2.74-0.46,5.48-0.92,10.56
	c-7.89-12.16-14.41-22.16-20.9-32.19c-15.92-24.59-31.84-49.18-47.76-73.77c-2.35-3.62-4.37-7.63-9.65-7.58
	c-5.66,0.06-11.32-0.01-16.98,0.04c-4.03,0.04-6.14,2.09-6.18,6.18c-0.02,2.33-0.09,4.66-0.09,6.99c-0.01,45.29-0.01,90.58,0,135.87
	c0,2.66-0.39,5.48,0.34,7.94c0.56,1.87,2.52,4.58,4.04,4.71c7.81,0.66,15.78,1.81,24.34-1.35c0.24-36.63-0.05-72.96,1.13-109.42
	c7.92,10.39,14.82,20.93,21.67,31.51c15.55,24.03,31.06,48.1,46.62,72.12c2.14,3.3,3.84,7.4,8.61,7.51
	C3701.9,1612.03,3709.46,1611.91,3717.92,1611.91z M2688.41,1611.89c0-5.32,0-8.59,0-11.87c0-45.96,0-91.92-0.01-137.88
	c0-2.33,0.52-4.92-0.33-6.92c-0.88-2.07-2.98-4.85-4.81-5.06c-5.92-0.67-11.95-0.38-17.94-0.29c-3.55,0.06-5.49,2.06-5.61,5.65
	c-0.09,2.66-0.13,5.33-0.13,7.99c-0.01,29.31-0.01,58.61-0.01,87.92c0,3.17,0,6.35,0,9.52c-4.76-3.91-7.71-8.18-10.53-12.54
	c-19.55-30.17-39.02-60.39-58.67-90.49c-1.92-2.94-4.56-7-7.37-7.46c-8.05-1.31-16.41-1.8-25.02,0.77c0,53.19,0,106,0,160.19
	c6.89,0.21,13.41,0.69,19.93,0.54c6.52-0.16,7.37-1.21,7.88-7.64c0.21-2.65,0.11-5.33,0.11-7.99c0.01-28.97-0.01-57.95,0.03-86.92
	c0-2.8,0.41-5.59,0.63-8.39c8.29,9.85,14.98,20.05,21.62,30.3c15.74,24.31,31.44,48.65,47.19,72.95c2.13,3.29,3.75,7.46,8.54,7.57
	C2671.46,1612.02,2679.01,1611.89,2688.41,1611.89z M1787.6,1498.63c-2.71-6.01-4.14-10.01-6.22-13.64
	c-23.42-40.85-82.73-49.3-119.35-19.02c-24.11,19.93-32.26,46.28-28.77,76.83c4.84,42.34,42.36,78.9,96.67,68.73
	c38.13-7.15,63.23-40.84,61.94-79.5c-0.32-9.6-0.82-10.25-10.36-10.29c-22.65-0.1-45.31-0.08-67.96,0.02
	c-3.15,0.01-6.29,0.71-9.4,1.09c0,8.01,0,14.83,0,22.96c19.1,0.2,37.51,0.39,56.15,0.58c-0.33,8.67-3.3,14.94-7.18,20.78
	c-10.29,15.49-25.83,20.95-43.23,19.82c-20.04-1.3-35.13-11.35-43.4-30.36c-5.52-12.7-6-26.1-3.61-39.26
	c3.82-21.03,15.68-35.87,37.25-40.97c20.53-4.85,38.22-0.5,51.25,17.46c1.55,2.14,4.52,4.41,6.95,4.56
	C1767.26,1498.95,1776.21,1498.63,1787.6,1498.63z M2420.73,1499.74c0.72-0.11,1.45-0.22,2.17-0.32c2.19,3.3,4.42,6.58,6.58,9.91
	c19.18,29.64,38.33,59.3,57.54,88.92c9.27,14.3,9.32,14.26,26.24,13.85c9.67-0.24,10.28-0.82,10.61-10.12
	c0.05-1.33,0.02-2.67,0.02-4c0-44.65,0.01-89.31-0.01-133.96c0-2.99,0.26-6.11-0.48-8.94c-0.5-1.89-2.47-4.7-3.94-4.8
	c-7.78-0.52-15.75-1.98-24.3,1.48c0,36.98,0,73.65,0,112.62c-6.31-9.6-11.26-17.07-16.14-24.59c-17.76-27.39-35.43-54.83-53.3-82.14
	c-1.91-2.91-4.66-6.88-7.46-7.29c-8.03-1.17-16.36-1.64-24.48,0.63c0,53.77,0,106.58,0,160.04c9.16,1.38,17.57,1.77,26.96-0.25
	C2420.73,1573.4,2420.73,1536.57,2420.73,1499.74z M1050.51,1530.63c0.2,2.65,0.42,5.3,0.58,7.96
	c3.14,49.88,48.76,84.29,99.25,72.79c34.04-7.75,56.38-32.12,61.25-67.96c8.56-62.97-43.32-105.97-99.34-93.26
	C1075.28,1458.56,1050.51,1491.15,1050.51,1530.63z M2875.51,1545.61c-0.97-47.31-13.58-73.22-43.15-88.3
	c-29.77-15.18-59.45-12.99-86.58,6.62c-23.99,17.34-33.71,42.26-32.3,71.37c2.65,54.53,49.64,87.32,100.31,76.01
	C2853.18,1602.52,2876.31,1566.75,2875.51,1545.61z M3563.23,1531.12c-0.93-6.9-1.4-13.89-2.86-20.68
	c-6.7-31.29-32.09-55.38-62.67-61.04c-35.73-6.61-68.36,10.06-84.05,35.08c-9.5,15.15-12.92,31.65-12.71,49.44
	c0.61,51.43,46.58,89.56,99.81,77.35C3538.63,1602.57,3562.48,1571.12,3563.23,1531.12z M1418.8,1451.42
	c-2.14,9.14-1.94,151.29,0.3,159.41c1.08,0.31,2.34,1.01,3.59,0.98c22.27-0.42,44.78,0.91,66.75-1.89
	c26.19-3.35,46.32-17.68,57.23-42.84c6.39-14.73,7.4-30.15,6.2-45.96c-2.46-32.25-23.01-58.46-54.02-66.99
	c-25.75-7.08-52.16-4.47-78.39-3.69C1419.89,1450.45,1419.34,1451.08,1418.8,1451.42z M810.35,1546.69
	c6.64-3.97,12.88-6.67,17.86-10.87c16.01-13.5,19.69-31.22,14.59-50.71c-5.23-20-19.87-31.2-39.43-33.26
	c-21.44-2.26-43.2-1.47-64.82-1.87c-1.47-0.03-2.96,1.09-4.22,1.58c-1.91,13.72-1.28,151.78,0.75,159.25c1.08,0.31,2.32,0.94,3.59,1
	c4.32,0.2,8.66,0.33,12.99,0.25c9.38-0.19,10.1-0.83,10.2-10.48c0.15-14-0.01-28,0.1-42c0.03-3.5,0.6-7,0.9-10.24
	c15.42-1.76,15.42-1.76,22.26,10.42c8.32,14.81,16.54,29.68,25.02,44.4c1.59,2.75,3.96,6.66,6.41,7.03
	c9.68,1.45,19.56,1.88,30.86-0.7C834.66,1588.55,822.67,1567.91,810.35,1546.69z M2143.39,1611.83c-1.93-5.87-2.99-9.3-4.18-12.69
	c-10.65-30.46-21.31-60.91-31.97-91.36c-5.94-16.95-12.02-33.86-17.74-50.88c-1.76-5.24-4.67-7.61-10.22-7.25
	c-4.64,0.3-9.32,0-13.99,0.05c-9.93,0.12-10.1,0.21-13.44,9.77c-16.48,47.09-32.94,94.18-49.36,141.29
	c-1.05,3.01-1.78,6.13-3.13,10.87c8.2,0.16,15.04,0.23,21.88,0.46c5.02,0.17,8.01-1.86,9.47-6.88c1.95-6.7,4.68-13.17,6.69-19.85
	c1.5-4.99,4.44-6.68,9.57-6.6c15.98,0.25,31.98,0.35,47.96-0.04c5.85-0.14,8.45,2.46,10.04,7.44c2.12,6.65,4.12,13.38,6.83,19.79
	c1,2.37,3.73,5.43,5.89,5.62C2125.49,1612.24,2133.39,1611.83,2143.39,1611.83z M3192.99,1610.25c-1-3.67-1.55-6.26-2.42-8.74
	c-7.98-22.91-16.01-45.81-24.03-68.71c-8.68-24.78-17.32-49.57-26.06-74.34c-3.04-8.61-3.15-8.61-12-8.77
	c-4.66-0.08-9.32-0.09-13.98,0.01c-8.43,0.19-8.61,0.19-11.42,8.17c-17,48.28-33.93,96.58-50.82,144.89
	c-0.83,2.37-1.02,4.97-1.8,9.02c7.85,0.09,14.7,0.09,21.55,0.28c5.13,0.14,7.82-2.28,9.27-7.16c1.98-6.68,4.75-13.13,6.81-19.79
	c1.39-4.5,3.88-6.4,8.67-6.34c16.31,0.19,32.62,0.24,48.92-0.03c5.24-0.09,7.96,2.03,9.47,6.76c2.12,6.65,4.2,13.34,6.86,19.78
	c1.02,2.47,3.41,5.89,5.49,6.13C3175.59,1612.35,3183.87,1613.24,3192.99,1610.25z M672.04,1450.09c-0.27,4.52-0.61,7.75-0.63,10.99
	c-0.06,14.98-0.03,29.96-0.03,44.94c0,16.31,0.16,32.63-0.06,48.94c-0.22,16.46-7.55,27.14-21.4,31.18
	c-8.45,2.46-17.05,2.28-25.54-0.22c-8.96-2.64-15.33-8.4-17.77-17.32c-1.73-6.32-2.53-13.07-2.59-19.63
	c-0.27-28.29-0.11-56.59-0.14-84.89c0-2.99,0.26-6.1-0.47-8.93c-0.49-1.9-2.41-4.72-3.88-4.85c-7.79-0.67-15.72-1.65-22.87,0.57
	c-0.61,1.76-1.01,2.38-1.01,3.01c-0.05,35.28-0.85,70.59,0.16,105.85c0.76,26.71,18.43,46.24,44.4,52.1
	c10.12,2.28,20.39,2.15,30.67,0.72c23.06-3.21,42.27-20.4,47.14-42.97c1.32-6.13,1.75-12.54,1.79-18.83
	c0.18-28.96,0.09-57.93,0.07-86.89c0-2.99,0.4-6.2-0.54-8.9c-0.7-2.03-3.17-4.72-5.01-4.84
	C687.17,1449.6,679.95,1450.01,672.04,1450.09z M290.2,1450.72c-0.48,2.09-1.03,3.36-1.03,4.63c-0.02,35.31-0.53,70.62,0.22,105.91
	c0.5,23.2,16.6,42.46,38.9,49.14c11.97,3.59,24.25,4.37,36.44,1.94c23.91-4.76,40.43-18.12,46.28-42.53
	c1.45-6.07,1.81-12.51,1.85-18.79c0.18-29.64,0.1-59.29,0.06-88.93c0-3.57-0.32-7.14-0.53-11.51c-9.24,0-17.62,0-26.84,0
	c-0.2,4.42-0.49,8-0.5,11.57c-0.04,28.31,0.08,56.62-0.1,84.94c-0.04,5.96-0.61,12.01-1.8,17.83c-1.91,9.36-7.37,16.54-16.34,20.06
	c-9.53,3.75-19.48,3.8-29.34,0.85c-10.19-3.04-16.31-10.13-18.72-20.2c-1.23-5.12-1.7-10.53-1.72-15.81
	c-0.16-29.31-0.06-58.62-0.1-87.93c-0.01-3.55-0.37-7.1-0.58-10.88C306.99,1449.04,298.6,1449.16,290.2,1450.72z M2888.24,1449.87
	c1.42,5.14,2.17,8.93,3.49,12.5c15.5,42.18,31.07,84.34,46.64,126.49c2.19,5.93,4.59,11.79,6.65,17.77
	c1.28,3.71,3.74,5.32,7.47,5.35c5.67,0.05,11.33,0.17,17,0.07c8.81-0.15,9.36-0.44,12.36-8.61c17.68-48.12,35.3-96.26,52.88-144.41
	c0.86-2.36,1.21-4.9,2.18-8.94c-9.04-0.08-16.9-0.4-24.72-0.04c-1.79,0.08-3.91,2.2-5.08,3.92c-1.46,2.15-2.19,4.84-3.07,7.35
	c-11.54,32.99-23.05,65.99-34.59,98.98c-1.95,5.57-4.02,11.1-6.57,18.12c-1.3-3.3-2.07-5.07-2.7-6.89
	c-12.53-35.82-25.04-71.64-37.57-107.46c-1.1-3.14-1.85-6.5-3.52-9.3c-1.2-2.02-3.58-4.55-5.58-4.69
	C2905.65,1449.56,2897.72,1449.87,2888.24,1449.87z M966.03,1450.68c-3.64-0.36-6.85-0.94-10.05-0.95
	c-22.65-0.08-45.3-0.11-67.95-0.01c-9.94,0.04-10.41,0.57-10.42,11.09c-0.05,46.63-0.05,93.26,0,139.9
	c0.01,10.94,0.36,11.32,11.2,11.36c22.32,0.08,44.63,0.06,66.95-0.02c3.23-0.01,6.45-0.59,9.4-0.88c2.11-9.98,1.99-14.66-0.82-23.58
	c-18.6,0-37.72,0-57.53,0c-0.45-15.89-0.88-30.28,0.22-45.49c13.66,0,25.96,0.02,38.25,0c14.74-0.02,15.69-1.09,14.56-16.11
	c-0.54-7.11-1.26-8.08-8.34-8.21c-11.32-0.22-22.65-0.02-33.97-0.13c-3.5-0.03-6.99-0.49-10.97-0.78
	c-0.05-14.7-0.48-28.19,0.22-42.22c20.39-1.46,39.66,0.53,59.25-1.29C966.03,1465.34,966.03,1458.5,966.03,1450.68z
	 M1266.89,1474.49c4.44,0,7.71,0,10.98,0c13,0,26,0.06,39-0.02c15.75-0.1,15.85,2.44,15.46-16.91c-0.13-6.57-1.11-7.49-7.63-7.77
	c-6.32-0.27-12.66-0.1-19-0.1c-19,0-38-0.06-57,0.03c-10.74,0.05-11,0.41-11.13,11.42c0,0.33,0,0.67,0,1
	c0,46-0.01,91.99,0.02,137.99c0,3.27,0.27,6.55,0.4,9.51c6.23,3.88,12.38,2.33,18.23,2.36c9.53,0.06,10.09-0.65,10.15-10.34
	c0.1-16-0.01-32,0.06-48c0.02-3.51,0.43-7.01,0.73-11.48c17,0,32.89,0,49.72,0c0-8.1,0-15.16,0-22.73
	c-16.9-3.15-33.65,0.82-50.01-2.54C1266.89,1502.66,1266.89,1489.42,1266.89,1474.49z M264.04,1474.32
	c1.09-8.99,1.76-16.14-0.5-23.91c-3.52-0.25-6.77-0.68-10.02-0.69c-23.99-0.06-47.98-0.08-71.96-0.01
	c-10.82,0.03-11.21,0.51-11.44,11.24c-0.02,1-0.01,2-0.01,3c0,44.64-0.01,89.29,0.01,133.93c0,2.99-0.28,6.12,0.49,8.93
	c0.51,1.86,2.55,4.55,4.08,4.67c7.8,0.61,15.77,2,23.93-1.42c1.11-22.35-0.61-44.58,1.07-67.91c17.22,0,33.39,0,50.1,0
	c0-8.33,0-15.38,0-23.5c-16.94-0.28-33.1-0.55-48.9-0.81c-2.66-9.67-2.56-34.54,0.21-43.52
	C221.55,1474.32,242.4,1474.32,264.04,1474.32z M438.78,1474.63c14.14,0,26.94,0,40.8,0c0,5.3,0,9.22,0,13.14
	c0,36.64,0,73.27,0.01,109.91c0,3-0.37,6.11,0.32,8.95c0.46,1.89,2.4,4.68,3.9,4.83c7.82,0.78,15.79,1.78,24.73-1.37
	c0-44.91,0-89.68,0-135.84c14.08,0,26.86,0,39.65,0c2.14-8.82,2.85-16.18-0.37-23.84c-2.9-0.25-5.52-0.67-8.14-0.67
	c-30.31-0.05-60.61-0.03-90.92-0.03c-1.66,0-3.64-0.45-4.92,0.27c-2.04,1.16-4.98,3.01-5.14,4.78
	C438.17,1460.88,438.67,1467.1,438.78,1474.63z M3251.38,1474.48c0,24-0.05,46.27,0.01,68.54c0.07,22.5-0.32,45.02,0.28,68.31
	c5.84,0.3,10.41,0.72,14.98,0.73c13.13,0.04,13.21-0.05,13.23-13.47c0.04-36.96-0.02-73.93,0.06-110.89
	c0.01-4.16,0.62-8.32,1.04-13.58c13.54,0,26.05,0,39.24,0c0-8.32,0-15.45,0-23.58c-4.28-0.31-8.16-0.82-12.03-0.83
	c-28.31-0.07-56.61-0.05-84.92-0.03c-13.85,0.01-13.85,0.04-13.68,13.86c0.13,10.67,0.29,10.85,11.52,10.92
	C3230.7,1474.53,3240.29,1474.48,3251.38,1474.48z M1912.16,1474.34c0.35,4.98,0.85,8.86,0.85,12.74
	c0.06,37.29,0.02,74.57,0.06,111.86c0,3.87,0.35,7.74,0.58,12.3c9.42,1.02,17.82,1.68,27.31-0.55c0-4.48,0-8.41,0-12.34
	c0-37.29-0.03-74.57,0.05-111.86c0.01-3.79,0.67-7.59,1.14-12.59c13.87,0,26.67,0,39.65,0c0-8.45,0-15.55,0-22.45
	c-11.47-2.84-102.52-2.31-110.05,0.55c-0.92,7.04-1.44,14.17,0.72,22.36C1885.62,1474.34,1898.46,1474.34,1912.16,1474.34z
	 M2167.98,1611.05c4.28,0.37,8.15,0.98,12.04,1.01c17.66,0.11,35.32,0.06,52.98,0.05c16.05-0.01,16.32-0.31,15.39-16.19
	c-0.02-0.33-0.04-0.67-0.03-1c0.22-5.09-2.36-7.22-7.3-7.18c-7.66,0.06-15.33-0.03-22.99-0.04c-6.89-0.01-13.78,0-21.41,0
	c-0.31-5.32-0.73-9.22-0.73-13.12c-0.05-36.65-0.02-73.31-0.05-109.96c0-3.33,0.23-6.77-0.56-9.93c-0.45-1.8-2.68-4.37-4.25-4.48
	c-7.51-0.51-15.17-1.76-23.08,1.24C2167.98,1504.44,2167.98,1557.27,2167.98,1611.05z M3347.37,1450.07
	c0.08,54.34-0.13,107.35,0.15,161.14c5.56,0.35,9.79,0.82,14.03,0.85c14.29,0.1,14.33,0.04,14.34-14.35
	c0.02-44.61,0.01-89.22-0.01-133.83c0-2.99,0.4-6.19-0.53-8.9c-0.7-2.03-3.15-4.75-4.98-4.88
	C3363.21,1449.6,3355.98,1450,3347.37,1450.07z M1579.03,1451.79c0.13,52.64-0.23,105.69,0.24,158.37
	c10.75,2.73,18.86,2.57,27.05-0.28c0-52.68,0-105.52,0-158.15C1597.57,1449.03,1589.15,1448.98,1579.03,1451.79z M1844.22,1610.88
	c0-53.88,0-106.69,0-159.9c-9.14-1.92-17.53-1.88-26.54-0.05c0,53.45,0,106.28,0,159.87
	C1826.48,1612.81,1834.87,1612.62,1844.22,1610.88z M2358.24,1611.32c0-54.29,0-107.1,0-159.72c-9.27-2.61-17.72-2.58-25.89-0.1
	c-2.23,10.33-1.76,151.95,0.74,159.81C2341,1611.32,2349.14,1611.32,2358.24,1611.32z"/>
<path class="st1" d="M3717.92,1611.91c-8.47,0-16.03,0.13-23.58-0.05c-4.76-0.11-6.47-4.21-8.61-7.51
	c-15.57-24.02-31.07-48.09-46.62-72.12c-6.84-10.58-13.75-21.12-21.67-31.51c-1.17,36.47-0.88,72.79-1.13,109.42
	c-8.56,3.16-16.53,2.02-24.34,1.35c-1.52-0.13-3.48-2.83-4.04-4.71c-0.74-2.46-0.34-5.27-0.34-7.94c-0.01-45.29-0.01-90.58,0-135.87
	c0-2.33,0.07-4.66,0.09-6.99c0.04-4.08,2.15-6.14,6.18-6.18c5.66-0.05,11.32,0.02,16.98-0.04c5.28-0.06,7.31,3.95,9.65,7.58
	c15.92,24.59,31.83,49.18,47.76,73.77c6.49,10.02,13.01,20.03,20.9,32.19c0.46-5.08,0.91-7.82,0.92-10.56
	c0.05-28.31,0.03-56.61,0.03-84.92c0-2.66-0.06-5.33,0.03-7.99c0.31-9.39,0.89-10,10.53-10.11c4.65-0.05,9.31,0.16,13.96,0.4
	c0.91,0.05,1.77,0.78,3.3,1.5C3717.92,1504.24,3717.92,1557.03,3717.92,1611.91z"/>
<path class="st1" d="M2688.41,1611.89c-9.4,0-16.95,0.13-24.5-0.05c-4.79-0.11-6.41-4.28-8.54-7.57
	c-15.76-24.3-31.45-48.64-47.19-72.95c-6.63-10.25-13.33-20.45-21.62-30.3c-0.22,2.8-0.62,5.59-0.63,8.39
	c-0.05,28.97-0.03,57.95-0.03,86.92c0,2.66,0.1,5.34-0.11,7.99c-0.51,6.44-1.36,7.49-7.88,7.64c-6.51,0.16-13.04-0.32-19.93-0.54
	c0-54.2,0-107.01,0-160.19c8.61-2.58,16.97-2.09,25.02-0.77c2.81,0.46,5.46,4.52,7.37,7.46c19.65,30.1,39.13,60.32,58.67,90.49
	c2.82,4.36,5.77,8.64,10.53,12.54c0-3.17,0-6.35,0-9.52c0-29.31,0-58.61,0.01-87.92c0-2.66,0.04-5.33,0.13-7.99
	c0.12-3.59,2.06-5.59,5.61-5.65c5.99-0.1,12.02-0.38,17.94,0.29c1.82,0.21,3.93,2.99,4.81,5.06c0.85,1.99,0.33,4.59,0.33,6.92
	c0.01,45.96,0.01,91.92,0.01,137.88C2688.41,1603.3,2688.41,1606.57,2688.41,1611.89z"/>
<path class="st1" d="M1787.6,1498.63c-11.39,0-20.34,0.33-29.25-0.22c-2.44-0.15-5.4-2.42-6.95-4.56
	c-13.04-17.96-30.72-22.31-51.25-17.46c-21.57,5.1-33.42,19.94-37.25,40.97c-2.39,13.16-1.92,26.56,3.61,39.26
	c8.27,19.01,23.35,29.05,43.4,30.36c17.41,1.13,32.95-4.33,43.23-19.82c3.88-5.84,6.85-12.11,7.18-20.78
	c-18.65-0.19-37.05-0.38-56.15-0.58c0-8.14,0-14.95,0-22.96c3.11-0.38,6.25-1.07,9.4-1.09c22.65-0.09,45.31-0.12,67.96-0.02
	c9.55,0.04,10.04,0.7,10.36,10.29c1.29,38.67-23.81,72.36-61.94,79.5c-54.31,10.18-91.83-26.38-96.67-68.73
	c-3.49-30.55,4.66-56.9,28.77-76.83c36.62-30.27,95.92-21.82,119.35,19.02C1783.46,1488.62,1784.89,1492.62,1787.6,1498.63z"/>
<path class="st1" d="M2420.73,1499.74c0,36.83,0,73.67,0,111.05c-9.39,2.02-17.8,1.63-26.96,0.25c0-53.46,0-106.27,0-160.04
	c8.12-2.28,16.45-1.8,24.48-0.63c2.81,0.41,5.56,4.37,7.46,7.29c17.87,27.31,35.55,54.75,53.3,82.14
	c4.88,7.52,9.83,14.99,16.14,24.59c0-38.97,0-75.64,0-112.62c8.56-3.46,16.53-2.01,24.3-1.48c1.47,0.1,3.44,2.91,3.94,4.8
	c0.74,2.83,0.48,5.94,0.48,8.94c0.02,44.65,0.01,89.31,0.01,133.96c0,1.33,0.02,2.67-0.02,4c-0.32,9.3-0.94,9.88-10.61,10.12
	c-16.92,0.42-16.97,0.45-26.24-13.85c-19.21-29.62-38.36-59.28-57.54-88.92c-2.15-3.33-4.38-6.61-6.58-9.91
	C2422.18,1499.52,2421.46,1499.63,2420.73,1499.74z"/>
<path class="st1" d="M1050.51,1530.63c0-39.47,24.77-72.07,61.75-80.46c56.01-12.72,107.89,30.28,99.34,93.26
	c-4.87,35.84-27.21,60.21-61.25,67.96c-50.49,11.5-96.11-22.92-99.25-72.79C1050.93,1535.93,1050.71,1533.28,1050.51,1530.63z
	 M1079.41,1530.36c0.33,10.52,1.98,20.62,6.78,30c9.78,19.11,25.51,27.88,46.92,27.38c20.7-0.48,35.48-9.99,44.24-28.45
	c6.78-14.27,7.58-29.35,4.24-44.79c-5.33-24.58-24.94-40.08-48.63-40.57c-29.82-0.62-46.83,19.41-50.97,38.75
	C1080.74,1518.49,1080.25,1524.46,1079.41,1530.36z"/>
<path class="st1" d="M2875.51,1545.61c0.8,21.14-22.33,56.9-61.72,65.7c-50.67,11.32-97.66-21.48-100.31-76.01
	c-1.41-29.11,8.31-54.03,32.3-71.37c27.13-19.61,56.8-21.8,86.58-6.62C2861.93,1472.39,2874.54,1498.31,2875.51,1545.61z
	 M2846.95,1532.98c-1.43-8.78-1.95-16.17-3.89-23.15c-5.52-19.83-22.17-33.53-41.38-35.43c-28.34-2.81-45.15,10.28-52.97,27.31
	c-8.8,19.17-8.99,38.95,0.07,58.03c9.38,19.76,25.7,28.74,47.64,28c20.74-0.7,35.71-10.33,43.91-29.09
	C2843.97,1550.28,2845.02,1540.79,2846.95,1532.98z"/>
<path class="st1" d="M3563.23,1531.12c-0.75,40-24.6,71.45-62.48,80.14c-53.22,12.21-99.2-25.92-99.81-77.35
	c-0.21-17.78,3.21-34.29,12.71-49.44c15.69-25.02,48.32-41.69,84.05-35.08c30.58,5.66,55.97,29.76,62.67,61.04
	C3561.83,1517.23,3562.3,1524.22,3563.23,1531.12z M3481.33,1587.68c22.59,1.44,42.5-13.41,49.15-36.07
	c4.24-14.47,4.19-28.94-0.52-43.27c-7.33-22.26-25.17-34.2-49.49-34.29c-23.73-0.09-41.19,14.82-47.59,35.56
	c-3.61,11.7-3.92,23.72-1.63,35.61C3436.39,1571.94,3455.2,1587.65,3481.33,1587.68z"/>
<path class="st1" d="M1418.8,1451.42c0.54-0.34,1.09-0.97,1.66-0.99c26.23-0.77,52.65-3.39,78.39,3.69
	c31.01,8.53,51.57,34.73,54.02,66.99c1.2,15.82,0.19,31.24-6.2,45.96c-10.91,25.16-31.04,39.5-57.23,42.84
	c-21.97,2.81-44.48,1.47-66.75,1.89c-1.25,0.02-2.51-0.67-3.59-0.98C1416.85,1602.71,1416.66,1460.56,1418.8,1451.42z
	 M1447.11,1475.31c-2.37,14.53-1.61,104.19,0.91,111.74c11.42,0,23.21,1.42,34.52-0.31c20.99-3.2,34.84-15.63,39.66-36.86
	c2.76-12.16,2.8-24.47,0.03-36.62c-4.77-20.97-17.89-34.3-39.03-37.62C1471.61,1473.81,1459.5,1475.31,1447.11,1475.31z"/>
<path class="st1" d="M810.35,1546.69c12.32,21.22,24.31,41.87,37.05,63.8c-11.3,2.59-21.18,2.15-30.86,0.7
	c-2.46-0.37-4.83-4.27-6.41-7.03c-8.48-14.72-16.7-29.59-25.02-44.4c-6.84-12.19-6.84-12.18-22.26-10.42
	c-0.3,3.24-0.87,6.74-0.9,10.24c-0.11,14,0.05,28-0.1,42c-0.1,9.65-0.82,10.29-10.2,10.48c-4.33,0.09-8.66-0.05-12.99-0.25
	c-1.27-0.06-2.51-0.68-3.59-1c-2.03-7.48-2.66-145.54-0.75-159.25c1.26-0.49,2.75-1.61,4.22-1.58c21.62,0.4,43.38-0.39,64.82,1.87
	c19.56,2.06,34.2,13.26,39.43,33.26c5.1,19.49,1.43,37.21-14.59,50.71C823.23,1540.02,816.99,1542.72,810.35,1546.69z
	 M762.69,1523.72c12.06,0,22.7,0.64,33.22-0.17c11.54-0.9,18.71-9.47,19.56-21.46c1.01-14.1-4.9-24.34-16.99-26.64
	c-11.66-2.22-23.58-1.04-35.79-0.59C762.69,1491.58,762.69,1507.01,762.69,1523.72z"/>
<path class="st1" d="M2143.39,1611.83c-10,0-17.9,0.41-25.71-0.27c-2.16-0.19-4.89-3.25-5.89-5.62c-2.71-6.42-4.71-13.14-6.83-19.79
	c-1.59-4.98-4.18-7.58-10.04-7.44c-15.98,0.39-31.98,0.29-47.96,0.04c-5.13-0.08-8.07,1.61-9.57,6.6
	c-2.01,6.68-4.74,13.15-6.69,19.85c-1.46,5.02-4.45,7.05-9.47,6.88c-6.84-0.23-13.68-0.29-21.88-0.46
	c1.35-4.74,2.08-7.86,3.13-10.87c16.43-47.11,32.88-94.2,49.36-141.29c3.34-9.56,3.51-9.65,13.44-9.77
	c4.66-0.06,9.34,0.24,13.99-0.05c5.55-0.36,8.46,2.01,10.22,7.25c5.72,17.03,11.8,33.93,17.74,50.88
	c10.66,30.45,21.33,60.9,31.97,91.36C2140.4,1602.54,2141.46,1605.96,2143.39,1611.83z M2094.15,1554.92
	c-7.73-22.56-14.92-43.53-22.11-64.5c-0.68,0.07-1.36,0.15-2.05,0.22c-7.23,21.1-14.45,42.2-22.02,64.27
	C2063.87,1554.92,2078.01,1554.92,2094.15,1554.92z"/>
<path class="st1" d="M3192.99,1610.25c-9.11,2.98-17.4,2.1-25.48,1.17c-2.08-0.24-4.47-3.66-5.49-6.13
	c-2.66-6.44-4.74-13.13-6.86-19.78c-1.51-4.74-4.23-6.85-9.47-6.76c-16.3,0.27-32.62,0.22-48.92,0.03
	c-4.79-0.06-7.29,1.84-8.67,6.34c-2.06,6.66-4.83,13.11-6.81,19.79c-1.45,4.88-4.14,7.3-9.27,7.16c-6.85-0.18-13.7-0.18-21.55-0.28
	c0.79-4.04,0.97-6.64,1.8-9.02c16.89-48.32,33.82-96.62,50.82-144.89c2.81-7.98,2.98-7.99,11.42-8.17c4.66-0.1,9.32-0.09,13.98-0.01
	c8.85,0.15,8.96,0.15,12,8.77c8.74,24.76,17.38,49.55,26.06,74.34c8.02,22.9,16.05,45.79,24.03,68.71
	C3191.43,1604,3191.98,1606.59,3192.99,1610.25z M3144.61,1554.89c-7.58-22.18-14.8-43.31-22.02-64.45
	c-0.67,0.02-1.35,0.04-2.02,0.06c-7.26,21.14-14.52,42.28-22.11,64.38C3114.2,1554.89,3128.39,1554.89,3144.61,1554.89z"/>
<path class="st1" d="M672.04,1450.09c7.91-0.08,15.13-0.49,22.29,0.01c1.84,0.13,4.31,2.82,5.01,4.84c0.94,2.7,0.54,5.91,0.54,8.9
	c0.03,28.96,0.12,57.93-0.07,86.89c-0.04,6.29-0.47,12.7-1.79,18.83c-4.87,22.57-24.08,39.77-47.14,42.97
	c-10.28,1.43-20.55,1.56-30.67-0.72c-25.97-5.86-43.64-25.39-44.4-52.1c-1-35.25-0.21-70.56-0.16-105.85c0-0.63,0.41-1.25,1.01-3.01
	c7.15-2.22,15.08-1.24,22.87-0.57c1.48,0.13,3.39,2.95,3.88,4.85c0.73,2.83,0.46,5.94,0.47,8.93c0.03,28.3-0.14,56.6,0.14,84.89
	c0.06,6.57,0.86,13.31,2.59,19.63c2.44,8.92,8.82,14.67,17.77,17.32c8.48,2.5,17.09,2.68,25.54,0.22
	c13.85-4.04,21.18-14.71,21.4-31.18c0.22-16.31,0.06-32.62,0.06-48.94c0-14.98-0.03-29.96,0.03-44.94
	C671.42,1457.84,671.77,1454.6,672.04,1450.09z"/>
<path class="st1" d="M290.2,1450.72c8.41-1.56,16.79-1.69,26.15,0.29c0.21,3.78,0.57,7.33,0.58,10.88
	c0.05,29.31-0.05,58.62,0.1,87.93c0.03,5.28,0.5,10.69,1.72,15.81c2.41,10.06,8.53,17.16,18.72,20.2
	c9.86,2.94,19.81,2.89,29.34-0.85c8.97-3.52,14.42-10.71,16.34-20.06c1.19-5.83,1.76-11.88,1.8-17.83
	c0.18-28.31,0.06-56.62,0.1-84.94c0-3.58,0.3-7.15,0.5-11.57c9.22,0,17.61,0,26.84,0c0.21,4.38,0.52,7.94,0.53,11.51
	c0.04,29.64,0.12,59.29-0.06,88.93c-0.04,6.28-0.4,12.72-1.85,18.79c-5.85,24.41-22.37,37.77-46.28,42.53
	c-12.2,2.43-24.47,1.64-36.44-1.94c-22.3-6.68-38.41-25.94-38.9-49.14c-0.75-35.29-0.25-70.61-0.22-105.91
	C289.17,1454.08,289.72,1452.81,290.2,1450.72z"/>
<path class="st1" d="M2888.24,1449.87c9.47,0,17.4-0.32,25.27,0.22c2,0.14,4.37,2.67,5.58,4.69c1.67,2.81,2.42,6.16,3.52,9.3
	c12.53,35.82,25.04,71.64,37.57,107.46c0.64,1.82,1.4,3.59,2.7,6.89c2.55-7.03,4.62-12.55,6.57-18.12
	c11.54-32.99,23.05-65.99,34.59-98.98c0.88-2.51,1.61-5.19,3.07-7.35c1.17-1.72,3.29-3.84,5.08-3.92
	c7.82-0.36,15.68-0.04,24.72,0.04c-0.97,4.04-1.32,6.59-2.18,8.94c-17.58,48.15-35.2,96.29-52.88,144.41
	c-3,8.17-3.55,8.46-12.36,8.61c-5.66,0.1-11.33-0.03-17-0.07c-3.74-0.03-6.19-1.65-7.47-5.35c-2.06-5.98-4.46-11.83-6.65-17.77
	c-15.57-42.16-31.14-84.31-46.64-126.49C2890.42,1458.8,2889.66,1455.02,2888.24,1449.87z"/>
<path class="st1" d="M966.03,1450.68c0,7.81,0,14.66,0,22.67c-19.59,1.81-38.86-0.18-59.25,1.29c-0.7,14.03-0.27,27.52-0.22,42.22
	c3.98,0.3,7.47,0.75,10.97,0.78c11.32,0.11,22.65-0.09,33.97,0.13c7.08,0.13,7.81,1.1,8.34,8.21c1.13,15.02,0.18,16.09-14.56,16.11
	c-12.29,0.02-24.59,0-38.25,0c-1.1,15.21-0.66,29.59-0.22,45.49c19.81,0,38.93,0,57.53,0c2.8,8.92,2.92,13.6,0.82,23.58
	c-2.94,0.29-6.17,0.87-9.4,0.88c-22.32,0.08-44.63,0.1-66.95,0.02c-10.83-0.04-11.19-0.42-11.2-11.36
	c-0.04-46.63-0.04-93.26,0-139.9c0.01-10.52,0.48-11.04,10.42-11.09c22.65-0.1,45.3-0.07,67.95,0.01
	C959.18,1449.75,962.38,1450.33,966.03,1450.68z"/>
<path class="st1" d="M1266.89,1474.49c0,14.93,0,28.17,0,42.43c16.37,3.36,33.11-0.61,50.01,2.54c0,7.58,0,14.63,0,22.73
	c-16.83,0-32.72,0-49.72,0c-0.3,4.47-0.71,7.98-0.73,11.48c-0.07,16,0.03,32-0.06,48c-0.06,9.69-0.62,10.4-10.15,10.34
	c-5.84-0.04-11.99,1.52-18.23-2.36c-0.13-2.96-0.4-6.24-0.4-9.51c-0.03-46-0.02-91.99-0.02-137.99c0-0.33,0-0.67,0-1
	c0.13-11.01,0.39-11.38,11.13-11.42c19-0.08,38-0.03,57-0.03c6.33,0,12.67-0.17,19,0.1c6.51,0.27,7.5,1.19,7.63,7.77
	c0.38,19.35,0.28,16.81-15.46,16.91c-13,0.08-26,0.02-39,0.02C1274.6,1474.49,1271.32,1474.49,1266.89,1474.49z"/>
<path class="st1" d="M264.04,1474.32c-21.63,0-42.48,0-62.94,0c-2.77,8.98-2.87,33.85-0.21,43.52c15.8,0.26,31.96,0.53,48.9,0.81
	c0,8.12,0,15.17,0,23.5c-16.72,0-32.88,0-50.1,0c-1.68,23.33,0.04,45.56-1.07,67.91c-8.16,3.42-16.13,2.03-23.93,1.42
	c-1.53-0.12-3.57-2.81-4.08-4.67c-0.77-2.81-0.49-5.94-0.49-8.93c-0.02-44.64-0.01-89.29-0.01-133.93c0-1-0.01-2,0.01-3
	c0.23-10.73,0.62-11.21,11.44-11.24c23.99-0.07,47.98-0.05,71.96,0.01c3.25,0.01,6.5,0.44,10.02,0.69
	C265.79,1458.18,265.12,1465.33,264.04,1474.32z"/>
<path class="st1" d="M438.78,1474.63c-0.12-7.53-0.61-13.75-0.07-19.87c0.16-1.77,3.1-3.62,5.14-4.78c1.28-0.73,3.26-0.27,4.92-0.27
	c30.31-0.01,60.61-0.02,90.92,0.03c2.62,0,5.24,0.42,8.14,0.67c3.22,7.66,2.51,15.02,0.37,23.84c-12.8,0-25.57,0-39.65,0
	c0,46.16,0,90.94,0,135.84c-8.94,3.15-16.91,2.14-24.73,1.37c-1.5-0.15-3.43-2.95-3.9-4.83c-0.7-2.84-0.32-5.95-0.32-8.95
	c-0.01-36.64-0.01-73.27-0.01-109.91c0-3.92,0-7.84,0-13.14C465.73,1474.63,452.93,1474.63,438.78,1474.63z"/>
<path class="st1" d="M3251.38,1474.48c-11.09,0-20.68,0.04-30.27-0.01c-11.23-0.06-11.39-0.25-11.52-10.92
	c-0.17-13.82-0.17-13.85,13.68-13.86c28.31-0.02,56.61-0.04,84.92,0.03c3.88,0.01,7.75,0.52,12.03,0.83c0,8.13,0,15.25,0,23.58
	c-13.19,0-25.7,0-39.24,0c-0.42,5.26-1.03,9.42-1.04,13.58c-0.08,36.96-0.02,73.93-0.06,110.89c-0.01,13.42-0.1,13.51-13.23,13.47
	c-4.57-0.01-9.14-0.43-14.98-0.73c-0.6-23.3-0.21-45.81-0.28-68.31C3251.33,1520.75,3251.38,1498.49,3251.38,1474.48z"/>
<path class="st1" d="M1912.16,1474.34c-13.7,0-26.54,0-39.69,0c-2.16-8.19-1.64-15.32-0.72-22.36c7.53-2.86,98.58-3.39,110.05-0.55
	c0,6.9,0,14.01,0,22.45c-12.98,0-25.78,0-39.65,0c-0.47,5.01-1.13,8.8-1.14,12.59c-0.08,37.29-0.05,74.57-0.05,111.86
	c0,3.93,0,7.86,0,12.34c-9.49,2.23-17.89,1.57-27.31,0.55c-0.22-4.56-0.57-8.43-0.58-12.3c-0.04-37.29,0-74.57-0.06-111.86
	C1913,1483.19,1912.5,1479.31,1912.16,1474.34z"/>
<path class="st1" d="M2167.98,1611.05c0-53.77,0-106.6,0-159.61c7.91-3,15.57-1.75,23.08-1.24c1.57,0.11,3.8,2.68,4.25,4.48
	c0.79,3.16,0.56,6.6,0.56,9.93c0.03,36.65,0,73.31,0.05,109.96c0.01,3.9,0.42,7.8,0.73,13.12c7.64,0,14.53-0.01,21.41,0
	c7.66,0.01,15.33,0.1,22.99,0.04c4.93-0.04,7.52,2.09,7.3,7.18c-0.01,0.33,0.01,0.67,0.03,1c0.93,15.88,0.66,16.18-15.39,16.19
	c-17.66,0.01-35.32,0.06-52.98-0.05C2176.14,1612.03,2172.26,1611.42,2167.98,1611.05z"/>
<path class="st1" d="M3347.37,1450.07c8.61-0.07,15.84-0.47,23,0.03c1.83,0.13,4.28,2.84,4.98,4.88c0.93,2.71,0.53,5.91,0.53,8.9
	c0.02,44.61,0.03,89.22,0.01,133.83c-0.01,14.38-0.05,14.44-14.34,14.35c-4.24-0.03-8.47-0.5-14.03-0.85
	C3347.24,1557.42,3347.45,1504.42,3347.37,1450.07z"/>
<path class="st1" d="M1579.03,1451.79c10.12-2.81,18.55-2.76,27.29-0.06c0,52.64,0,105.47,0,158.15c-8.19,2.85-16.31,3-27.05,0.28
	C1578.79,1557.47,1579.16,1504.43,1579.03,1451.79z"/>
<path class="st1" d="M1844.22,1610.88c-9.35,1.74-17.75,1.94-26.54-0.09c0-53.58,0-106.42,0-159.87c9.01-1.83,17.4-1.86,26.54,0.05
	C1844.22,1504.18,1844.22,1557,1844.22,1610.88z"/>
<path class="st1" d="M2358.24,1611.32c-9.1,0-17.23,0-25.16,0c-2.5-7.87-2.96-149.49-0.74-159.81c8.18-2.48,16.62-2.52,25.89,0.1
	C2358.24,1504.22,2358.24,1557.03,2358.24,1611.32z"/>
<g>
	<path class="st2" d="M286.27,1243.3c-23.87,0-47.33,0-71.27,0c0-4.86,0-8.39,0-11.87c7.35-1.96,76.09-2.5,89.01-0.7
		c3.03,8.13,0.84,16.46-0.81,24.35c-6.5,31.23-23.63,54.51-54.68,64.48c-31.46,10.1-60.76,4.62-85.47-18.18
		c-16.39-15.12-24.33-34.82-26.29-56.74c-1.81-20.29,1.19-39.85,11.4-57.9c17.15-30.32,50.51-46.24,85.34-41.3
		c28.94,4.11,50.08,18.59,62.8,45.03c0.96,2.01,1.42,4.26,2.26,6.84c-6.59,0-12.5,0-18.51,0c-0.97-1.63-1.84-3.02-2.64-4.45
		c-13.36-23.7-34.28-34.02-60.71-32.29c-28.75,1.88-48.58,17.22-58.28,44.33c-7.44,20.79-6.82,41.94,1.31,62.56
		c11.35,28.78,39.47,44.57,71.64,40.59c28.58-3.54,51.2-26.84,54.88-56.63C286.51,1249.2,286.27,1246.9,286.27,1243.3z"/>
	<path class="st2" d="M1072.45,1231.32c2.68,1.37,4.71,2.36,6.71,3.43c18.15,9.67,26.09,25.06,24.62,45.26
		c-1.35,18.44-11.28,30.98-28.33,37.56c-5.81,2.24-12.2,3.96-18.36,4.11c-20.97,0.49-41.95,0.19-62.93,0.15
		c-0.95,0-1.9-0.4-2.77-0.6c-2.03-7.28-2.72-159.67-0.82-173.35c0.53-0.38,1.07-1.1,1.6-1.09c23.26,0.39,46.68-0.67,69.75,1.67
		c27.3,2.76,41.84,24.09,37.55,51.15c-1.83,11.51-8.02,20.27-17.79,26.5C1078.93,1227.84,1076.02,1229.31,1072.45,1231.32z
		 M1006.51,1307.51c16.78,0,32.93,0.07,49.09-0.07c2.6-0.02,5.26-0.82,7.78-1.63c11.84-3.84,20.31-11.06,23.06-23.74
		c4.61-21.27-7.77-39.79-29.75-42.16c-15.44-1.67-31.14-0.95-46.73-1.17c-1.16-0.02-2.33,0.94-3.45,1.42
		C1006.51,1262.62,1006.51,1284.73,1006.51,1307.51z M1007.09,1161.81c-2.16,13.25-1.64,55.22,0.73,62.4
		c14.81,0,29.76,0.04,44.7-0.05c1.96-0.01,3.94-0.54,5.87-1.02c17.36-4.24,25.17-14.96,24.39-33.45
		c-0.63-15.09-10.92-26.47-27.44-27.65C1039.49,1160.92,1023.5,1161.81,1007.09,1161.81z"/>
	<path class="st2" d="M753.67,1323.94c-43.81-0.12-78.17-31.04-83.59-74.57c-2.76-22.2-0.1-43.35,11-62.8
		c16.13-28.27,41.53-42.03,73.51-41.9c32.46,0.14,58.27,14.4,73.37,43.64c16.4,31.77,15.71,64.35-1.81,95.67
		C811.62,1309.96,784.99,1324.02,753.67,1323.94z M746.32,1308.88c30.97,0.09,50.28-9.78,62.72-28.27
		c17.21-25.59,17.3-66.36,0.2-92.01c-25.02-37.53-82.38-39.09-108.42-2.22c-18.17,25.74-19.17,54.35-7.46,82.83
		C704.2,1295.56,725.31,1308.24,746.32,1308.88z"/>
	<path class="st2" d="M2442.79,1146.41c12.78,0,25.03-0.2,37.28,0.06c9.63,0.21,19.36,0.24,28.86,1.65
		c36.05,5.35,54.33,41.59,37.67,74.06c-5.58,10.88-14.38,18.15-25.81,22.31c-3.08,1.12-6.16,2.24-10.54,3.84
		c14.41,24.45,28.48,48.29,43.14,73.16c-7.54,0-13.43,0-20.09,0c-6.74-11.54-13.62-23.27-20.46-35.02
		c-6.2-10.65-12.53-21.23-18.44-32.04c-2.38-4.36-5.39-6.23-10.33-6.06c-7.91,0.27-15.83,0.07-24.73,0.07c0,24.9,0,48.43,0,72.71
		c-5.82,0-10.63,0-15.55,0C2441.62,1314.23,2440.64,1172.39,2442.79,1146.41z M2459.8,1234.63c15.97,0.3,31.3,1.62,46.35-1.07
		c18.69-3.34,28.76-16.92,28.61-36.48c-0.15-19.11-9.62-31.61-27.83-34.68c-15.4-2.6-31.02-0.87-47.13-1.06
		C2459.8,1186.04,2459.8,1209.56,2459.8,1234.63z"/>
	<path class="st2" d="M3314.92,1197.44c-6.99,0-12.62,0-18.73,0c-1.28-2.11-2.76-4.27-3.96-6.59c-21.1-40.81-87.07-42.86-111.3-0.51
		c-15.65,27.36-16.04,56.18-1.98,84.24c11.24,22.43,30.73,33.65,55.79,34.18c24.81,0.52,44.78-8.66,57.57-30.9
		c0.99-1.72,1.99-3.43,3.22-5.55c5.84,0,11.73,0,19.02,0c-1.53,3.77-2.46,6.86-3.97,9.64c-14.49,26.66-37.63,39.64-67.28,41.67
		c-54.55,3.72-92.02-37.06-91.06-90.6c0.59-33.12,12.99-60.44,42.54-77.7c35.74-20.88,94.81-12.99,116.81,33.59
		C3312.7,1191.27,3313.5,1193.77,3314.92,1197.44z"/>
	<path class="st2" d="M1386.41,1321.58c-6.46,0-11.39,0-17.2,0c-3.95-10.82-7.89-21.69-11.89-32.54c-3.11-8.45-3.14-8.54-12.02-8.57
		c-20.33-0.07-40.65-0.07-60.98,0c-8.46,0.03-8.53,0.12-11.43,7.94c-4.03,10.88-7.94,21.81-12.02,33.03c-5.59,0-10.81,0-17.09,0
		c0.96-3.34,1.59-6.15,2.56-8.84c18.64-51.66,37.29-103.31,56.07-154.92c1.08-2.97,2.78-7.44,4.95-7.94
		c5.02-1.17,10.64-0.99,15.74,0.03c1.91,0.38,3.47,4.49,4.45,7.17c8.9,24.39,17.62,48.85,26.42,73.28
		c9.7,26.93,19.46,53.84,29.15,80.77C1384.22,1314.08,1385.07,1317.25,1386.41,1321.58z M1349.11,1265.99
		c-11.46-31.79-21.8-62.23-34.28-92.18c-11.72,30.57-23.23,60.71-33.64,92.18C1304.3,1265.99,1325.8,1265.99,1349.11,1265.99z"/>
	<path class="st2" d="M2046.24,1186.77c-6.38,0-11.6,0-16.81,0c-0.61-1.05-1.26-1.85-1.56-2.76c-8.98-26.59-41.58-29.02-58.55-19.65
		c-20.44,11.29-21.63,39.85-1.54,51.64c7.63,4.48,16.48,6.96,24.92,9.94c8.77,3.09,17.95,5.11,26.55,8.59
		c20.77,8.39,29.01,21.25,28.61,43.14c-0.36,19.22-12.1,35.61-31.08,42.23c-20.18,7.04-40.14,6.01-58.84-4.64
		c-13.82-7.87-21.53-20.07-22.56-36.93c6.06,0,11.26,0,16.18,0c0.7,0.86,1.36,1.31,1.48,1.87c6.47,31.32,43.26,35.23,62.63,23.69
		c10.22-6.09,15.22-15.25,15.2-27.4c-0.01-11.96-5.16-20.92-15.6-25.8c-9.58-4.48-19.95-7.26-29.96-10.81
		c-8.76-3.1-17.81-5.58-26.2-9.47c-29.49-13.68-28.46-55.38-7.53-72.65c9.96-8.22,21.53-11.87,33.97-12.95
		c14.6-1.26,28.66,1.13,41.07,9.45C2037.92,1161.82,2044.6,1172.32,2046.24,1186.77z"/>
	<path class="st2" d="M3815.01,1186.18c-0.83,0.31-1.71,0.91-2.61,0.93c-4.31,0.1-8.62,0.05-13.31,0.05
		c-1.09-2.13-2.23-4.09-3.12-6.16c-11.26-26.38-48.71-26.38-63.99-11.88c-11.81,11.21-13.33,36.14,3.8,45.97
		c8.25,4.74,17.6,7.67,26.63,10.93c8.75,3.16,17.91,5.21,26.55,8.6c17.72,6.95,28.17,19.6,28.55,39.3
		c0.4,20.4-8.69,35.64-26.97,44.04c-21.6,9.93-43.56,8.66-64.18-3.31c-13.13-7.62-20.4-19.61-21.76-35.94c5.77,0,11.19,0,16.9,0
		c0.48,1.01,1.28,2.14,1.56,3.39c6.67,29.7,45.12,33.83,64.53,20.25c17.25-12.06,18.03-40.81-1.91-51.07
		c-7.62-3.92-15.94-6.54-24.06-9.4c-10.02-3.52-20.44-6.04-30.23-10.1c-15.44-6.4-24.16-18.19-25.25-35.24
		c-1.18-18.49,5.05-33.34,21.16-43.27c23.57-14.53,59.18-10.79,76.82,7.91C3811.07,1168.55,3814.36,1176.07,3815.01,1186.18z"/>
	<path class="st2" d="M3468.76,1146.9c29.47,0,58.34,0,87.98,0c0,3.94,0,7.75,0,13.05c-11.43,1.05-23.32,0.34-35.15,0.47
		c-11.6,0.13-23.2,0.03-35.74,0.03c-1.27,22.22-0.42,43.35-0.6,65.8c21.77,0,42.89,0,64.42,0c0,5.49,0,9.66,0,14.95
		c-21.41,0-42.24,0-63.76,0c0,22.57,0,44.03,0,66.82c23.68,0,47.14,0,71.08,0c0,5.12,0,8.93,0,13.33c-29.37,0-58.25,0-87.15,0
		C3467.62,1314.22,3466.62,1172.29,3468.76,1146.9z"/>
	<path class="st2" d="M2200.6,1321.25c0-58.58,0-116.09,0-174.22c29.57,0,58.67,0,88.3,0c0.23,1.89,0.57,3.46,0.58,5.04
		c0.01,2.27-0.24,4.53-0.46,8.26c-23.78,0-47.22,0-71.22,0c0,22.62,0,43.75,0,65.95c21.29,0,42.1,0,63.48,0c0,5.24,0,9.42,0,14.76
		c-20.94,0-41.75,0-63.31,0c0,22.59,0,44.05,0,66.79c23.44,0.88,46.93-0.14,70.94,0.6c0,4.52,0,8.32,0,12.82
		C2259.58,1321.25,2230.49,1321.25,2200.6,1321.25z"/>
	<path class="st2" d="M2767.57,1299.76c18.5-50.9,37.01-101.8,55.59-152.91c5.69,0,10.9,0,17.73,0
		c-21.79,58.8-43.25,116.68-64.75,174.69c-6.96,0-13.2,0-20.09,0c-21.5-58.01-42.97-115.92-64.76-174.69c6.75,0,11.99,0,18.22,0
		c18.35,50.88,36.78,101.99,55.21,153.1C2765.67,1299.88,2766.62,1299.82,2767.57,1299.76z"/>
	<path class="st2" d="M456.15,1146.87c4.75,0,9.6,0,15.43,0c0,53.51,0,106.65,0,161.08c10.68,0.91,20.55,0.35,30.38,0.45
		c9.96,0.1,19.93,0.02,30.73,0.02c0,4.3,0,8.08,0,13.02c-25.11,1.1-50.59,0.22-75.84,0.53
		C454.34,1314.37,453.84,1157.89,456.15,1146.87z"/>
	<path class="st2" d="M1549.87,1308.43c21.23,0,41.07,0,61.43,0c0,4.77,0,8.56,0,12.93c-25.61,0-50.76,0-75.84,0
		c-2.13-7.32-2.93-157.89-0.88-174.17c4.64,0,9.38,0,15.29,0c0,26.7,0,53.23,0,79.77
		C1549.87,1253.55,1549.87,1280.13,1549.87,1308.43z"/>
	<path class="st2" d="M2986.37,1321.03c0-58.23,0-115.93,0-174.12c2.21-0.2,3.8-0.43,5.39-0.47c2.95-0.07,5.9-0.02,8.65-0.02
		c2.3,7.85,3.19,155.06,1.14,174.6C2996.92,1321.03,2992.17,1321.03,2986.37,1321.03z"/>
</g>
<path class="st0" d="M1079.41,1530.36c0.84-5.9,1.33-11.87,2.58-17.68c4.14-19.34,21.15-39.37,50.97-38.75
	c23.69,0.5,43.29,16,48.63,40.57c3.35,15.44,2.54,30.52-4.24,44.79c-8.76,18.45-23.55,27.97-44.24,28.45
	c-21.41,0.5-37.14-8.27-46.92-27.38C1081.39,1550.98,1079.74,1540.88,1079.41,1530.36z"/>
<path class="st0" d="M2846.95,1532.98c-1.94,7.81-2.98,17.3-6.63,25.66c-8.19,18.76-23.16,28.4-43.91,29.09
	c-21.93,0.74-38.25-8.25-47.64-28c-9.06-19.08-8.87-38.86-0.07-58.03c7.81-17.03,24.63-30.12,52.97-27.31
	c19.21,1.91,35.87,15.6,41.38,35.43C2845,1516.81,2845.52,1524.2,2846.95,1532.98z"/>
<path class="st0" d="M3481.33,1587.68c-26.12-0.04-44.94-15.74-50.08-42.47c-2.29-11.88-1.99-23.9,1.63-35.61
	c6.4-20.75,23.87-35.65,47.59-35.56c24.32,0.09,42.16,12.03,49.49,34.29c4.71,14.33,4.77,28.8,0.52,43.27
	C3523.83,1574.27,3503.91,1589.12,3481.33,1587.68z"/>
<path class="st0" d="M1447.11,1475.31c12.4,0,24.51-1.49,36.09,0.33c21.14,3.32,34.26,16.66,39.03,37.62
	c2.77,12.15,2.73,24.46-0.03,36.62c-4.82,21.23-18.67,33.67-39.66,36.86c-11.31,1.72-23.11,0.31-34.52,0.31
	C1445.5,1579.5,1444.73,1489.84,1447.11,1475.31z"/>
<path class="st0" d="M762.69,1523.72c0-16.71,0-32.13,0-48.87c12.21-0.45,24.13-1.62,35.79,0.59c12.09,2.3,17.99,12.54,16.99,26.64
	c-0.86,11.99-8.02,20.56-19.56,21.46C785.39,1524.36,774.76,1523.72,762.69,1523.72z"/>
<path class="st0" d="M2094.15,1554.92c-16.14,0-30.29,0-46.17,0c7.56-22.08,14.79-43.17,22.02-64.27c0.68-0.07,1.36-0.15,2.05-0.22
	C2079.24,1511.39,2086.42,1532.36,2094.15,1554.92z"/>
<path class="st0" d="M3144.61,1554.89c-16.22,0-30.4,0-46.15,0c7.59-22.1,14.85-43.24,22.11-64.38c0.67-0.02,1.35-0.04,2.02-0.06
	C3129.81,1511.58,3137.03,1532.71,3144.61,1554.89z"/>
<path class="st0" d="M3242.55,633.97"/>
<path class="st0" d="M780.83,831.56c2.03,120.45,78.95,170.04,168.02,170.04c63.77,0,102.23-11.13,135.63-25.3l15.18,63.76
	c-31.38,14.17-85.02,30.36-162.96,30.36c-150.81,0-240.89-99.19-240.89-246.97s87.05-264.17,229.76-264.17
	c159.92,0,202.43,140.69,202.43,230.77c0,18.22-2.03,32.39-3.04,41.5H780.83z M1041.97,767.79
	c1.01-56.68-23.28-144.74-123.49-144.74c-90.08,0-129.56,83-136.64,144.74H1041.97z"/>
<path class="st0" d="M1276.79,570.42l69.84,105.55c18.22,27.4,33.4,52.78,49.6,80.18h3.04c16.2-29.43,32.39-54.8,48.59-81.19
	l68.83-104.54h96.16L1445.82,807.9l172.07,253.73h-101.22L1444.81,951c-19.23-28.42-35.42-55.82-52.63-85.25h-2.02
	c-16.19,29.43-33.4,55.82-51.62,85.25l-70.85,110.63h-98.18l174.09-250.68L1177.6,570.42H1276.79z"/>
<path class="st0" d="M1946.82,1058.29c-17.18,7.09-44.52,12.1-78.94,12.1c-41.51,0-74.92-13.11-96.18-37.43
	c-25.27-26.33-34.42-69.85-34.42-127.53v-534.1l87.09-23.26v554.35c0,60.69,17.18,95.12,66.78,95.12c23.26,0,40.5-3.01,51.6-6.08
	L1946.82,1058.29z"/>
<g>
	<path class="st3" d="M3033.42,1061.94V570.07h319.44v79.94h-227.28v116.28h165.51v78.62h-165.51v133.12h237.19v83.91H3033.42z"/>
	<path class="st3" d="M3436.77,1061.94V570.07h98.76l141.39,247.09c10.79,19.16,20.81,38.54,30.06,58.14
		c9.24,19.6,17.72,39.42,25.43,59.46c-2.42-14.53-4.18-30.11-5.28-46.74c-1.11-16.63-1.66-34.41-1.66-53.35v-264.6h85.89v491.87
		h-85.89l-153.61-253.7c-8.37-14.31-17.23-31.49-26.59-51.53c-9.37-20.03-18.99-42.28-28.91-66.73c2.2,13.44,3.8,28.19,4.79,44.27
		c0.99,16.08,1.48,34.69,1.48,55.83v271.87H3436.77z"/>
</g>
<path class="st3" d="M1492.26,702.71"/>
<path class="st3" d="M2250.07,442.61c118.68,0,226.4-24.55,305.65-64.48c-65.06,19.81-140.68,31.17-221.37,31.17
	c-83.09,0-160.8-12.04-227.14-32.95c73.16-124.86,208.71-208.72,363.88-208.72c40.5,0,79.66,5.73,116.73,16.39
	c-56.64-27.06-120.06-42.22-187.02-42.22c-155.57,0-292.01,81.8-368.73,204.71c-11.19,17.93-21.11,36.73-29.63,56.28
	c-18.43,42.29-30.32,88.07-34.41,136.09c-95.55-22.13-202.54-57.18-318.26-111.31v94.64c88.87,34.02,198.66,67.33,317.7,83.84
	c3.26,47.91,14.27,93.69,31.81,136.09c6.77,16.36,14.51,32.21,23.15,47.49c74.56,131.88,216.06,220.92,378.37,220.92
	c11.93,0,23.74-0.5,35.43-1.44c-144.83-11.86-268.91-96.94-335.18-218.15c108.78-3.18,207.02-27,280.68-64.1
	c-65.06,19.81-140.68,31.17-221.37,31.17c-26.28,0-52.02-1.21-77.03-3.52c-18.54-43.4-29.97-90.55-32.92-139.99
	c128.72,8.38,264.67-5.8,394.38-61.19c0,0-150.39,43.16-393.82,2.14c3.62-45.82,14.54-89.59,31.64-130.12
	C2134.25,436.47,2190.79,442.61,2250.07,442.61z"/>
<path class="st0" d="M2874.6,618.94c-238.72,149.37-438.36,160.32-438.36,160.32c202.53,33.04,341.85-27.18,415.04-73.84
	c-72.29,197.39-261.85,338.24-484.29,338.24c-73.2,0-142.84-15.22-205.88-42.76c77.01,45.85,167.04,72.19,263.2,72.19
	c273.84,0,497.71-213.45,514.53-483c0.31-4.89,0.55-9.8,0.71-14.73C2917.67,591.06,2895.98,605.56,2874.6,618.94z"/>
<path class="st0" d="M2884.29,321.69c-84.99-167.97-259.18-283.13-460.3-283.13c-89.86,0-174.34,23.01-247.9,63.43
	c55.79-20.67,116.12-31.98,179.09-31.98c201.9,0,376.66,116.07,461.28,285.11c9.84,19.66,18.46,40.03,25.77,61.03
	c21.66-13.92,47.09-30.7,64.44-43.53C2900.1,355.18,2892.63,338.18,2884.29,321.69z"/>
<g>
	<path class="st3" d="M669.83,1079.65H477.48L242.61,797.8v281.85h-92.69V668.3c0,0,9.53-62.85,62.85-28.58l297.1,361.86h85.69
		L669.83,1079.65z"/>
	<path class="st0" d="M598.72,581.41v350.26c0,0-9.5,62.85-62.83,28.56L238.8,598.4h-85.69l-74.29-78.1h192.35l234.9,281.88V581.41
		H598.72z"/>
</g>
</svg>
